<svg xmlns="http://www.w3.org/2000/svg" width="185.868" height="24.633" viewBox="0 0 185.868 24.633">
  <g id="Logo" transform="translate(-355 -217.788)">
    <circle id="Ellipse_2" data-name="Ellipse 2" cx="4.775" cy="4.775" r="4.775" transform="translate(355 242.42) rotate(-90)" fill="#ff9000"/>
    <circle id="Ellipse_5" data-name="Ellipse 5" cx="4.775" cy="4.775" r="4.775" transform="translate(355 227.564) rotate(-90)" fill="#92ccff"/>
    <path id="Path_2" data-name="Path 2" d="M15.755-13.511v8.924H5.994v-8.924H1.58V9.04H5.994V-.625h9.762V9.04h4.414V-13.511Zm19.395,5.8V1.856c0,2.126-.9,3.447-3.093,3.447-2.223,0-3.125-1.321-3.125-3.447V-7.712H24.615V2.533c0,3.608,2.32,6.8,7.41,6.8h.032c5.058,0,7.41-3.189,7.41-6.8V-7.712ZM62.6-8a5.9,5.9,0,0,0-5.122,2.481h-.1A5.518,5.518,0,0,0,52.354-8a5.521,5.521,0,0,0-4.7,2.191h-.129l-.322-1.9H43.333V9.04H47.65V-.238c0-2.384,1.385-3.834,3.383-3.834,2.126,0,2.932,1.256,2.932,3.351V9.04h4.285V-.238c0-2.352,1.16-3.834,3.189-3.834,2.094,0,2.9,1.256,2.9,3.351V9.04h4.317V-1.945A5.65,5.65,0,0,0,62.6-8ZM81.381,9.33c4.253,0,6.862-3.544,6.862-8.666C88.243-4.33,85.73-8,81.381-8a5.451,5.451,0,0,0-4.639,2.094h-.129V-14.8H72.3V9.04h3.866l.451-1.8h.129A5.451,5.451,0,0,0,81.381,9.33Zm-1.224-3.8c-2.674,0-3.7-2.255-3.7-4.865s.967-4.865,3.7-4.865c2.771,0,3.7,2.223,3.7,4.865C83.862,3.274,82.9,5.529,80.157,5.529ZM91.24,9.04h4.317V-14.8H91.24Zm15.11.29c4.317,0,7.055-2.481,7.507-5.509h-4.22c-.322,1.031-1.353,1.933-3.286,1.933-2.481,0-3.641-1.611-3.673-3.9h11.4V.181c0-4.575-2.8-8.183-7.8-8.183-5.38,0-8.022,3.93-8.022,8.7C98.263,5.529,101.162,9.33,106.349,9.33ZM102.709-1.011a3.267,3.267,0,0,1,3.576-3.383,3.178,3.178,0,0,1,3.383,3.383ZM117.657,9.04h4.414V-.012h10.084V-3.975H122.071V-9.549h11.115v-3.963H117.657Zm23.776.29A5.629,5.629,0,0,0,146.1,7.3h.129l.322,1.74h3.834V-2.042c0-3.415-2.61-5.96-7.12-5.96-4.575,0-6.959,2.545-6.959,5.7h4.059c0-1.192,1-2.159,2.8-2.159,2.062,0,2.9,1.1,2.9,2.448V-.56a13.684,13.684,0,0,0-3.737-.515c-4.671,0-6.766,2.159-6.766,5.187C135.57,7.075,137.7,9.33,141.433,9.33Zm1.031-3.415c-1.74,0-2.61-.838-2.61-2,0-1.192,1-2,2.9-2a9.088,9.088,0,0,1,3.318.548v.354C146.073,4.5,144.72,5.915,142.464,5.915ZM152.484,9.04h4.7L160.7,3.274h.129l3.479,5.767h4.7V8.718L163.7.6l5.155-7.99v-.322h-4.639l-3.383,5.638H160.7l-3.383-5.638h-4.639v.322L157.8.632l-5.316,8.086Z" transform="translate(371.857 232.588)" fill="#f2f1f9"/>
  </g>
</svg>
